<?xml version="1.0" standalone="no"?>
<!DOCTYPE svg PUBLIC "-//W3C//DTD SVG 20010904//EN"
 "http://www.w3.org/TR/2001/REC-SVG-20010904/DTD/svg10.dtd">
<svg version="1.0" xmlns="http://www.w3.org/2000/svg"
 width="3568.000000pt" height="732.000000pt" viewBox="0 0 3568.000000 732.000000"
 preserveAspectRatio="xMidYMid meet">

<g transform="translate(0.000000,732.000000) scale(0.100000,-0.100000)"
fill="#008B8B" stroke="none">
<path d="M6447 6718 c-45 -55 -177 -257 -177 -270 0 -5 33 -80 73 -165 47
-101 79 -158 92 -164 27 -11 331 -40 347 -33 12 5 62 66 182 221 l49 62 -74
172 c-40 94 -78 173 -84 175 -14 5 -325 44 -352 44 -13 0 -35 -16 -56 -42z"/>
<path d="M7115 6654 c-47 -58 -85 -112 -85 -120 0 -13 96 -254 105 -263 3 -2
67 -13 143 -23 l137 -18 49 53 c79 85 126 147 126 168 0 22 -77 231 -93 253
-8 10 -53 23 -122 36 -176 32 -161 37 -260 -86z"/>
<path d="M4686 6484 c-306 -47 -567 -181 -786 -404 -106 -107 -277 -347 -260
-364 3 -2 86 -12 185 -21 99 -9 187 -20 196 -23 19 -8 169 -295 168 -321 0 -9
-42 -92 -92 -186 l-92 -170 -135 -5 -135 -5 -8 -85 c-4 -47 -6 -110 -5 -140 3
-52 5 -55 31 -58 16 -2 34 -14 43 -28 23 -34 174 -423 174 -447 0 -22 -82
-134 -235 -322 l-97 -120 7 -115 c4 -63 10 -179 14 -257 4 -79 9 -144 12 -146
2 -2 65 -10 139 -16 74 -7 138 -15 142 -19 4 -4 36 -63 71 -132 l63 -125 1640
-3 1639 -2 92 30 c284 91 517 290 652 557 67 135 109 354 96 507 -22 254 -143
505 -329 684 -92 88 -161 138 -288 207 -86 46 -88 47 -88 84 0 58 -60 241 -79
241 -4 0 -63 -71 -132 -157 -68 -87 -139 -175 -158 -197 -40 -44 -3 -44 -321
0 -102 14 -194 32 -206 39 -11 7 -46 73 -83 156 -35 79 -73 166 -85 194 l-22
50 -43 -72 c-27 -46 -50 -73 -64 -76 -12 -2 -101 -1 -197 2 l-175 6 -83 145
c-45 80 -85 155 -88 167 -4 15 12 55 53 129 32 58 62 107 67 108 4 0 40 -67
80 -151 39 -83 74 -154 77 -158 9 -8 243 -35 310 -35 l57 0 94 118 c147 182
141 141 55 337 -65 151 -76 170 -101 176 -16 5 -102 16 -192 26 l-164 17 -29
-34 -28 -34 -74 61 c-261 213 -583 354 -899 393 -113 13 -275 11 -384 -6z"/>
<path d="M7572 6310 c-29 -39 -55 -77 -58 -84 -4 -12 59 -171 75 -188 3 -4 53
-10 111 -13 l105 -7 60 86 59 86 -40 81 c-21 45 -46 85 -54 89 -9 5 -58 12
-110 15 l-95 7 -53 -72z"/>
<path d="M2568 6340 c-215 -17 -410 -115 -521 -262 -14 -18 -68 -105 -120
-193 -52 -88 -128 -216 -169 -285 -41 -69 -209 -357 -373 -640 -284 -491 -579
-995 -670 -1145 -56 -92 -67 -116 -98 -205 -64 -188 -62 -324 6 -442 13 -24
73 -126 132 -228 200 -345 527 -913 863 -1500 184 -322 350 -608 368 -636 93
-141 227 -227 442 -285 76 -20 90 -21 1187 -20 1073 1 1255 5 1255 22 0 28
155 59 304 60 44 1 98 7 121 14 42 12 43 12 41 -11 0 -13 -6 -24 -12 -24 -6 0
-19 -9 -29 -20 -10 -11 -29 -20 -42 -20 -12 0 -23 -4 -23 -8 0 -13 107 5 174
30 76 28 196 106 255 167 32 33 115 169 282 462 130 228 341 596 469 819 411
716 521 913 513 920 -4 5 -88 9 -186 11 l-178 4 -186 -315 c-309 -524 -695
-1186 -788 -1350 -97 -171 -116 -210 -121 -255 -2 -16 -6 -43 -8 -59 -7 -56
-124 -135 -246 -165 -69 -18 -323 -19 -343 -2 -9 7 -15 17 -12 21 3 5 -7 11
-22 14 -39 8 -2116 27 -2162 20 -83 -13 -280 51 -353 116 -27 23 -60 69 -83
112 -71 136 -187 342 -395 698 -114 195 -260 447 -325 560 -165 285 -417 718
-478 819 -58 98 -77 164 -77 277 0 97 24 186 71 259 44 69 175 295 369 640 90
160 183 324 207 365 97 169 244 432 404 723 196 357 224 400 312 485 119 113
61 106 808 103 l646 -2 15 23 c26 38 179 201 243 258 33 30 61 57 63 61 2 4
-106 7 -240 8 -134 0 -454 3 -713 5 -258 3 -518 1 -577 -4z m2812 -5739 c0 -5
-7 -14 -15 -21 -13 -10 -15 -9 -15 9 0 12 6 21 15 21 8 0 15 -4 15 -9z"/>
<path d="M6825 6029 c-82 -106 -151 -196 -153 -200 -2 -4 18 -56 43 -115 104
-247 151 -346 165 -354 8 -4 120 -23 249 -41 l234 -33 37 41 c51 58 240 301
258 333 18 31 14 46 -101 330 -61 152 -63 155 -97 162 -46 9 -360 56 -430 64
l-55 6 -150 -193z"/>
<path d="M3576 5508 c-42 -64 -76 -123 -76 -132 0 -18 116 -242 128 -250 4 -2
71 -8 148 -12 l141 -7 65 94 c103 148 100 123 27 270 -72 146 -51 134 -241
145 l-117 7 -75 -115z"/>
<path d="M2942 5183 c-56 -79 -80 -122 -76 -135 3 -10 29 -69 59 -132 l54
-113 58 -6 c32 -4 97 -9 144 -13 l86 -6 81 103 c45 57 82 111 82 120 0 10 -25
73 -56 142 l-55 124 -124 17 c-182 24 -159 33 -253 -101z"/>
<path d="M2583 4754 l-57 -85 47 -95 47 -94 108 0 108 0 53 88 54 87 -44 84
c-24 46 -48 85 -54 86 -5 2 -54 6 -108 9 l-97 5 -57 -85z"/>
<path d="M3016 4538 c-82 -106 -149 -197 -149 -203 0 -19 183 -439 198 -454
18 -18 423 -77 492 -72 14 1 239 278 284 349 21 33 26 49 19 65 -5 12 -45 115
-90 229 -74 189 -83 207 -108 212 -78 16 -427 66 -459 66 -37 0 -41 -3 -187
-192z"/>
<path d="M2449 4043 c-13 -16 -60 -89 -104 -163 l-79 -133 78 -151 c43 -83 84
-156 90 -163 11 -12 336 -39 360 -30 18 7 216 285 216 303 0 8 -36 86 -80 173
-91 182 -67 165 -245 176 -49 3 -117 8 -151 11 -58 5 -62 4 -85 -23z"/>
<path d="M9355 3819 c-628 -55 -1026 -398 -1145 -988 -30 -153 -40 -275 -40
-508 1 -328 29 -564 91 -777 132 -445 445 -741 884 -834 405 -87 832 -33 1119
141 63 38 203 145 236 182 l25 27 -135 128 -134 128 -66 -56 c-120 -102 -224
-157 -386 -204 -71 -21 -99 -23 -284 -22 -188 0 -213 2 -301 26 -269 73 -448
241 -554 521 -55 148 -85 397 -85 722 0 366 36 554 142 738 88 152 193 249
353 327 119 57 192 76 354 91 301 27 568 -51 777 -227 l50 -43 133 133 133
133 -78 66 c-150 127 -312 206 -523 258 -188 45 -351 56 -566 38z"/>
<path d="M14390 3819 c-621 -54 -1086 -462 -1220 -1068 -35 -161 -43 -270 -37
-519 8 -368 52 -591 164 -832 197 -424 563 -670 1072 -720 647 -63 1160 169
1414 640 88 164 146 343 184 575 26 161 26 637 -1 780 -97 524 -396 892 -865
1065 -105 38 -243 67 -386 79 -134 12 -187 12 -325 0z m290 -359 c345 -36 623
-228 777 -535 35 -69 77 -191 99 -285 24 -102 30 -493 10 -646 -46 -351 -161
-589 -362 -753 -183 -149 -373 -210 -649 -211 -285 0 -488 75 -668 249 -187
179 -294 423 -336 761 -14 106 -14 412 -1 505 36 252 129 458 279 617 92 98
171 155 292 212 171 80 352 107 559 86z"/>
<path d="M29346 3820 c-395 -45 -676 -196 -819 -441 -116 -199 -124 -527 -17
-739 87 -173 295 -330 570 -431 47 -17 184 -57 305 -89 287 -77 418 -120 529
-175 222 -108 307 -235 293 -435 -8 -111 -37 -179 -112 -258 -35 -37 -88 -82
-119 -101 -211 -127 -608 -160 -861 -71 -76 26 -176 85 -239 141 -59 52 -154
169 -193 238 l-28 50 -167 -87 c-92 -48 -168 -92 -168 -98 0 -6 32 -59 70
-117 241 -365 627 -553 1095 -534 379 16 681 126 880 322 169 166 235 324 235
560 0 228 -59 391 -191 524 -157 159 -345 248 -729 347 -378 98 -518 148 -640
229 -84 56 -135 111 -169 184 -23 50 -26 68 -26 166 0 130 15 171 97 261 202
220 666 266 1001 98 97 -49 148 -85 222 -158 l63 -61 141 125 142 125 -78 76
c-175 169 -419 292 -661 334 -109 19 -323 27 -426 15z"/>
<path d="M10960 2250 l0 -1530 893 0 894 0 54 177 54 178 -752 3 -753 2 0
1350 0 1350 -195 0 -195 0 0 -1530z"/>
<path d="M16473 2768 c3 -870 6 -1028 20 -1118 26 -171 37 -219 72 -326 105
-320 321 -517 663 -605 111 -28 298 -49 442 -49 676 0 1057 292 1159 890 37
217 41 333 41 1288 l0 932 -194 0 -195 0 -4 -1007 c-3 -704 -7 -1032 -16
-1088 -60 -407 -236 -598 -597 -646 -132 -17 -407 -7 -509 20 -290 76 -428
253 -476 611 -8 58 -13 410 -16 1098 l-4 1012 -195 0 -195 0 4 -1012z"/>
<path d="M19408 3774 c-5 -4 -8 -693 -8 -1531 l0 -1523 683 0 c375 0 735 5
800 10 283 24 479 106 655 274 246 236 361 583 379 1141 15 480 -75 884 -262
1170 -51 78 -214 242 -287 288 -129 81 -239 125 -393 154 -66 12 -214 16 -820
20 -407 3 -743 1 -747 -3z m1432 -368 c105 -17 184 -46 255 -94 217 -146 333
-378 381 -762 21 -169 15 -576 -11 -738 -66 -417 -248 -647 -565 -712 -87 -18
-138 -20 -597 -20 l-503 0 0 1170 0 1170 478 0 c361 0 498 -3 562 -14z"/>
<path d="M22420 2250 l0 -1530 195 0 195 0 2 1300 3 1300 442 -1118 441 -1117
189 0 188 0 436 1088 c240 598 439 1090 442 1094 4 3 7 -568 7 -1270 l0 -1277
195 0 195 0 0 1530 0 1530 -276 -2 -276 -3 -446 -1077 c-246 -593 -449 -1078
-452 -1078 -3 0 -200 485 -437 1078 l-431 1077 -306 3 -306 2 0 -1530z"/>
<path d="M25890 2250 l0 -1530 1090 0 1090 0 0 180 0 180 -895 0 -895 0 0 540
0 540 755 0 755 0 0 180 0 180 -755 0 -755 0 0 450 0 450 844 0 844 0 16 48
c22 69 83 263 91 290 l6 22 -1095 0 -1096 0 0 -1530z"/>
<path d="M31070 2250 l0 -1530 195 0 195 0 0 720 0 720 805 0 805 0 0 -720 0
-720 195 0 195 0 0 1530 0 1530 -195 0 -195 0 0 -630 0 -630 -805 0 -805 0 0
630 0 630 -195 0 -195 0 0 -1530z"/>
<path d="M3091 3677 c-14 -7 -61 -74 -114 -161 l-90 -148 31 -62 c72 -141 130
-248 139 -257 4 -4 86 -14 181 -20 135 -9 175 -9 187 1 22 18 187 252 198 280
8 21 -2 49 -71 186 l-81 162 -43 6 c-24 3 -95 8 -158 11 -63 4 -124 8 -135 10
-11 2 -31 -1 -44 -8z"/>
<path d="M3623 3163 c-14 -3 -46 -43 -98 -124 l-77 -119 69 -128 68 -127 147
-3 146 -3 65 93 c99 143 97 119 26 260 -34 68 -66 126 -71 129 -6 4 -56 10
-112 14 -55 3 -110 8 -121 10 -11 1 -30 1 -42 -2z"/>
</g>
</svg>
